<?xml version="1.0" encoding="utf-8"?>
<!-- Generator: Adobe Illustrator 24.2.0, SVG Export Plug-In . SVG Version: 6.00 Build 0)  -->
<svg version="1.1" id="Layer_1" xmlns="http://www.w3.org/2000/svg" xmlns:xlink="http://www.w3.org/1999/xlink" x="0px" y="0px"
	 viewBox="0 0 493.5 560" style="enable-background:new 0 0 493.5 560;" xml:space="preserve">
<style type="text/css">
	.st0{fill-rule:evenodd;clip-rule:evenodd;fill:#D2AB67;stroke:#000000;}
	.st1{fill-rule:evenodd;clip-rule:evenodd;fill:#ED1C24;stroke:#000000;stroke-width:3;}
	.st2{fill-rule:evenodd;clip-rule:evenodd;fill:#2E3192;stroke:#000000;stroke-width:3;}
	.st3{fill-rule:evenodd;clip-rule:evenodd;fill:#FFFFFF;stroke:#000000;stroke-width:3;}
</style>
<g>
	<path class="st0" d="M248.7,88.3h-0.2C234.6,218.7,132.7,336.5,37.4,423.8c-2.1-31.3-12.6-59.7-27.7-82.6
		c17.1,13.4,29.5,35.1,40,55.9c128-118.8,186.8-249.8,198.7-390c12.8,153,87.2,286.6,198.5,390c10.5-20.9,23-42.6,40-55.9
		c-15.1,22.9-25.6,51.3-27.6,82.6C364,336.5,262.6,218.7,248.7,88.3z"/>
	<g>
		<path class="st1" d="M205.1,507.2l37.7-37.7c2.9-3,8-2.7,11.2,0.5l36.6,36.6c3.2,3.2,3.5,8.3,0.5,11.2l-37.7,37.7
			c-3,3-8,2.7-11.2-0.5l-36.6-36.6C202.4,515.2,202.2,510,205.1,507.2z"/>
		<path class="st2" d="M205.1,405.9l37.7-37.7c2.9-3,8-2.7,11.2,0.5l36.6,36.6c3.2,3.2,3.5,8.3,0.5,11.2l-37.7,37.7
			c-3,3-8,2.7-11.2-0.5l-36.6-36.6C202.4,413.8,202.2,408.8,205.1,405.9z"/>
		<path class="st1" d="M205.1,304.8l37.7-37.7c2.9-3,8-2.7,11.2,0.5l36.6,36.6c3.2,3.2,3.5,8.3,0.5,11.2l-37.7,37.7
			c-3,2.9-8,2.7-11.2-0.6l-36.6-36.4C202.4,312.8,202.2,307.8,205.1,304.8z"/>
		<path class="st3" d="M154.3,456.6l37.7-37.7c3-3,8-2.7,11.2,0.5l36.6,36.6c3.2,3.2,3.5,8.3,0.5,11.2l-37.7,37.7
			c-3,3-8,2.7-11.2-0.5l-36.6-36.6C151.6,464.6,151.3,459.6,154.3,456.6z"/>
		<path class="st3" d="M154.1,355.4l37.7-37.6c3-3,8-2.7,11.2,0.5l36.6,36.6c3.2,3.2,3.5,8.3,0.5,11.2l-37.7,37.7
			c-3,3-8,2.7-11.2-0.5l-36.6-36.6C151.5,363.3,151.2,358.3,154.1,355.4z"/>
		<path class="st3" d="M255.8,456.6l37.6-37.7c3-3,8-2.7,11.2,0.5l36.6,36.6c3.2,3.2,3.5,8.3,0.5,11.2L304,504.9
			c-3,3-8,2.7-11.2-0.5l-36.4-36.6C253.2,464.6,252.9,459.6,255.8,456.6z"/>
		<path class="st3" d="M256,355.2l37.6-37.6c3-3,8-2.7,11.2,0.5l36.6,36.6c3.2,3.2,3.5,8.3,0.5,11.2l-37.7,37.7c-3,3-8,2.7-11.2-0.5
			l-36.5-36.6C253.3,363.2,253.1,358.1,256,355.2z"/>
		<path class="st2" d="M306.6,405.9l37.7-37.7c3-3,8-2.7,11.2,0.5l36.6,36.6c3.2,3.2,3.5,8.3,0.5,11.2l-37.7,37.7
			c-3,3-8,2.7-11.2-0.5l-36.6-36.6C303.8,413.8,303.6,408.8,306.6,405.9z"/>
		<path class="st2" d="M103.5,406l37.7-37.7c2.9-3,8-2.7,11.2,0.5l36.6,36.6c3.2,3.2,3.5,8.3,0.5,11.2l-37.7,37.7
			c-3,3-8,2.7-11.2-0.5L104,417.2C100.8,414,100.6,409,103.5,406z"/>
	</g>
</g>
</svg>
